<svg xmlns="http://www.w3.org/2000/svg" xmlns:xlink="http://www.w3.org/1999/xlink" width="667" zoomAndPan="magnify" viewBox="0 0 500.25 280.499991" height="374" preserveAspectRatio="xMidYMid meet" version="1.0"><defs><clipPath id="d1359a0f44"><path d="M 22.558594 24.132812 L 26.808594 24.132812 L 26.808594 27.734375 L 22.558594 27.734375 Z M 22.558594 24.132812 " clip-rule="nonzero"/></clipPath><clipPath id="1a143718c4"><path d="M 26.796875 25.417969 C 24.925781 28.410156 23.128906 27.886719 22.753906 27.214844 C 22.382812 26.613281 22.679688 24.742188 23.28125 24.292969 C 23.878906 23.84375 26.273438 24.519531 26.273438 24.519531 " clip-rule="nonzero"/></clipPath><clipPath id="88a41b4f9a"><path d="M 20.910156 24.132812 L 25.164062 24.132812 L 25.164062 27.734375 L 20.910156 27.734375 Z M 20.910156 24.132812 " clip-rule="nonzero"/></clipPath><clipPath id="6781421df5"><path d="M 25.152344 25.417969 C 23.28125 28.410156 21.484375 27.886719 21.109375 27.214844 C 20.734375 26.613281 21.035156 24.742188 21.632812 24.292969 C 22.230469 23.84375 24.628906 24.519531 24.628906 24.519531 " clip-rule="nonzero"/></clipPath><clipPath id="7e45333a33"><path d="M 23.121094 24.695312 L 27.410156 24.695312 L 27.410156 28.335938 L 23.121094 28.335938 Z M 23.121094 24.695312 " clip-rule="nonzero"/></clipPath><clipPath id="6ff4cf6f00"><path d="M 27.398438 25.941406 C 25.449219 29.011719 23.652344 28.410156 23.28125 27.8125 C 22.90625 27.140625 23.28125 25.34375 23.804688 24.894531 C 24.402344 24.445312 26.796875 25.042969 26.796875 25.042969 " clip-rule="nonzero"/></clipPath><clipPath id="2d22afb98f"><path d="M 23.121094 26.90625 L 27.410156 26.90625 L 27.410156 30.503906 L 23.121094 30.503906 Z M 23.121094 26.90625 " clip-rule="nonzero"/></clipPath><clipPath id="5fb7cbcf15"><path d="M 27.398438 28.1875 C 25.449219 31.183594 23.652344 30.65625 23.28125 29.984375 C 22.90625 29.386719 23.28125 27.511719 23.804688 27.0625 C 24.402344 26.613281 26.796875 27.289062 26.796875 27.289062 " clip-rule="nonzero"/></clipPath><clipPath id="9bb6622691"><path d="M 23.425781 23.199219 L 28.074219 23.199219 L 28.074219 28.347656 L 23.425781 28.347656 Z M 23.425781 23.199219 " clip-rule="nonzero"/></clipPath><clipPath id="5ed5912324"><path d="M 28.070312 26.089844 C 27.171875 27.886719 26.273438 28.410156 25.675781 28.335938 C 25 28.335938 24.179688 27.8125 23.804688 27.289062 C 23.503906 26.691406 23.429688 25.714844 23.730469 25.117188 C 23.953125 24.59375 24.777344 23.917969 25.375 23.84375 C 26.050781 23.769531 27.023438 24.070312 27.398438 24.519531 C 27.847656 24.96875 28.144531 25.941406 27.996094 26.539062 C 27.847656 27.214844 27.171875 27.960938 26.648438 28.1875 C 26.050781 28.410156 25 28.335938 24.476562 27.960938 C 23.953125 27.511719 23.429688 26.242188 23.429688 25.492188 C 23.429688 24.96875 23.652344 24.367188 24.027344 23.996094 C 24.402344 23.621094 25 23.246094 25.523438 23.246094 C 26.050781 23.171875 26.648438 23.320312 27.097656 23.621094 C 27.546875 23.917969 28.070312 24.96875 28.070312 24.96875 " clip-rule="nonzero"/></clipPath><clipPath id="278ca0f60c"><path d="M 20.910156 24.132812 L 25.164062 24.132812 L 25.164062 27.734375 L 20.910156 27.734375 Z M 20.910156 24.132812 " clip-rule="nonzero"/></clipPath><clipPath id="989d10070d"><path d="M 25.152344 25.417969 C 23.28125 28.410156 21.484375 27.886719 21.109375 27.214844 C 20.734375 26.613281 21.035156 24.742188 21.632812 24.292969 C 22.230469 23.84375 24.628906 24.519531 24.628906 24.519531 " clip-rule="nonzero"/></clipPath><clipPath id="c34d8d3611"><path d="M 23.628906 26.292969 L 27.34375 26.292969 L 27.34375 29.785156 L 23.628906 29.785156 Z M 23.628906 26.292969 " clip-rule="nonzero"/></clipPath><clipPath id="50d0965227"><path d="M 25.375 26.316406 C 27.320312 27.4375 27.398438 28.261719 27.171875 28.710938 C 27.023438 29.160156 26.421875 29.683594 25.972656 29.757812 C 25.449219 29.835938 24.703125 29.609375 24.402344 29.308594 C 24.027344 29.011719 23.730469 28.261719 23.878906 27.738281 C 23.953125 27.289062 24.402344 26.691406 24.851562 26.464844 C 25.300781 26.242188 26.050781 26.316406 26.5 26.539062 C 26.871094 26.765625 27.398438 27.4375 27.320312 27.960938 C 27.246094 28.5625 26.199219 29.757812 25.601562 29.757812 C 25 29.835938 23.878906 28.785156 23.652344 28.261719 C 23.578125 27.886719 23.730469 27.363281 23.953125 27.0625 C 24.253906 26.691406 25.375 26.316406 25.375 26.316406 " clip-rule="nonzero"/></clipPath><clipPath id="e8457af2fa"><path d="M 22.84375 23.632812 L 26.597656 23.632812 L 26.597656 27.3125 L 22.84375 27.3125 Z M 22.84375 23.632812 " clip-rule="nonzero"/></clipPath><clipPath id="f57dfc8473"><path d="M 23.878906 23.84375 C 26.648438 24.96875 26.574219 25.792969 26.347656 26.242188 C 26.125 26.691406 25.449219 27.140625 24.925781 27.214844 C 24.476562 27.214844 23.730469 26.914062 23.429688 26.539062 C 23.054688 26.164062 22.90625 25.417969 23.054688 24.894531 C 23.203125 24.445312 23.730469 23.84375 24.179688 23.695312 C 24.703125 23.546875 25.449219 23.695312 25.824219 23.996094 C 26.273438 24.292969 26.574219 24.96875 26.574219 25.492188 C 26.5 26.089844 25.898438 26.988281 25.300781 27.214844 C 24.703125 27.4375 23.28125 27.140625 22.980469 26.691406 C 22.605469 26.164062 23.203125 24.292969 23.203125 24.292969 " clip-rule="nonzero"/></clipPath><clipPath id="dc07cb3161"><path d="M 22.761719 24.785156 L 26.308594 24.785156 L 26.308594 28.550781 L 22.761719 28.550781 Z M 22.761719 24.785156 " clip-rule="nonzero"/></clipPath><clipPath id="39b1c4970c"><path d="M 25.824219 28.039062 C 23.730469 28.410156 23.054688 27.886719 22.90625 27.4375 C 22.679688 26.988281 22.753906 26.164062 22.980469 25.792969 C 23.28125 25.34375 23.953125 24.96875 24.476562 24.894531 C 25 24.894531 25.675781 25.265625 25.972656 25.714844 C 26.273438 26.089844 26.421875 26.914062 26.199219 27.363281 C 26.050781 27.8125 25.449219 28.335938 25 28.488281 C 24.476562 28.636719 23.652344 28.488281 23.355469 28.113281 C 22.90625 27.589844 22.980469 26.015625 23.28125 25.492188 C 23.503906 25.117188 23.953125 24.894531 24.402344 24.816406 C 24.851562 24.816406 25.675781 24.96875 25.972656 25.417969 C 26.347656 25.867188 26.050781 27.8125 26.050781 27.8125 " clip-rule="nonzero"/></clipPath><clipPath id="1b61d38bd7"><path d="M 22.753906 24.40625 L 26.421875 24.40625 L 26.421875 28.113281 L 22.753906 28.113281 Z M 22.753906 24.40625 " clip-rule="nonzero"/></clipPath><clipPath id="ab2c77fd07"><path d="M 26.421875 26.316406 C 25.226562 28.039062 24.402344 28.113281 23.953125 27.960938 C 23.503906 27.8125 22.980469 27.140625 22.832031 26.691406 C 22.753906 26.242188 22.980469 25.417969 23.28125 25.042969 C 23.652344 24.742188 24.402344 24.445312 24.925781 24.519531 C 25.375 24.59375 26.050781 25.117188 26.199219 25.566406 C 26.421875 26.015625 26.347656 26.765625 26.125 27.214844 C 25.898438 27.664062 25.152344 28.113281 24.703125 28.113281 C 24.101562 28.039062 22.980469 26.914062 22.832031 26.316406 C 22.679688 25.867188 22.90625 25.417969 23.203125 25.117188 C 23.578125 24.742188 24.253906 24.367188 24.777344 24.445312 C 25.300781 24.59375 26.421875 26.164062 26.421875 26.164062 " clip-rule="nonzero"/></clipPath><clipPath id="0259f8bcc5"><path d="M 22.644531 24.367188 L 26.199219 24.367188 L 26.199219 28.226562 L 22.644531 28.226562 Z M 22.644531 24.367188 " clip-rule="nonzero"/></clipPath><clipPath id="8bd3248148"><path d="M 26.199219 26.390625 C 25 28.113281 24.253906 28.261719 23.804688 28.039062 C 23.355469 27.886719 22.832031 27.289062 22.679688 26.765625 C 22.605469 26.316406 22.832031 25.566406 23.128906 25.191406 C 23.503906 24.816406 24.253906 24.59375 24.703125 24.667969 C 25.226562 24.742188 25.824219 25.191406 26.050781 25.640625 C 26.273438 26.089844 26.199219 26.914062 25.972656 27.289062 C 25.675781 27.738281 25 28.261719 24.550781 28.1875 C 23.953125 28.113281 22.753906 27.0625 22.679688 26.390625 C 22.605469 25.792969 23.503906 24.667969 24.027344 24.445312 C 24.402344 24.292969 24.925781 24.445312 25.300781 24.59375 C 25.675781 24.894531 26.199219 26.015625 26.199219 26.015625 " clip-rule="nonzero"/></clipPath><clipPath id="118a74c5bc"><path d="M 23.421875 24.4375 L 27.253906 24.4375 L 27.253906 28.957031 L 23.421875 28.957031 Z M 23.421875 24.4375 " clip-rule="nonzero"/></clipPath><clipPath id="eb2c07dbf9"><path d="M 27.246094 27.140625 C 26.050781 28.859375 25.226562 29.011719 24.703125 28.785156 C 24.253906 28.636719 23.730469 27.960938 23.652344 27.511719 C 23.503906 26.988281 23.730469 26.164062 24.101562 25.867188 C 24.476562 25.492188 25.75 25.265625 26.273438 25.492188 C 26.722656 25.714844 27.171875 26.390625 27.246094 26.914062 C 27.246094 27.4375 26.949219 28.1875 26.574219 28.488281 C 26.199219 28.785156 25.375 29.085938 24.925781 28.859375 C 24.253906 28.5625 23.355469 26.914062 23.429688 26.164062 C 23.503906 25.492188 24.328125 24.59375 24.925781 24.445312 C 25.523438 24.367188 27.246094 25.640625 27.246094 25.640625 " clip-rule="nonzero"/></clipPath><clipPath id="37b49c0caa"><path d="M 24.664062 25.902344 L 28.21875 25.902344 L 28.21875 29.574219 L 24.664062 29.574219 Z M 24.664062 25.902344 " clip-rule="nonzero"/></clipPath><clipPath id="4800d5e5b8"><path d="M 28.21875 27.738281 C 27.023438 29.535156 26.273438 29.609375 25.75 29.386719 C 25.300781 29.234375 24.851562 28.636719 24.703125 28.1875 C 24.628906 27.664062 24.851562 26.914062 25.152344 26.539062 C 25.523438 26.164062 26.273438 25.941406 26.722656 26.015625 C 27.246094 26.089844 27.847656 26.613281 28.070312 27.0625 C 28.21875 27.4375 28.21875 28.261719 27.996094 28.710938 C 27.695312 29.085938 27.023438 29.609375 26.574219 29.535156 C 25.898438 29.460938 24.777344 28.410156 24.703125 27.738281 C 24.550781 27.289062 25 26.613281 25.375 26.316406 C 25.675781 26.015625 26.199219 25.867188 26.574219 25.941406 C 27.171875 26.089844 28.21875 27.664062 28.21875 27.664062 " clip-rule="nonzero"/></clipPath><clipPath id="e997bf8714"><path d="M 25.074219 26.050781 L 28.371094 26.050781 L 28.371094 28.890625 L 25.074219 28.890625 Z M 25.074219 26.050781 " clip-rule="nonzero"/></clipPath><clipPath id="a123dd8fcc"><path d="M 28.371094 27.0625 C 26.871094 29.386719 25.523438 29.011719 25.226562 28.488281 C 24.925781 27.960938 25.152344 26.539062 25.601562 26.164062 C 26.050781 25.867188 27.921875 26.316406 27.921875 26.316406 " clip-rule="nonzero"/></clipPath><clipPath id="66ca7941a4"><path d="M 24.242188 24.097656 L 27.816406 24.097656 L 27.816406 27.636719 L 24.242188 27.636719 Z M 24.242188 24.097656 " clip-rule="nonzero"/></clipPath><clipPath id="494b526b90"><path d="M 27.472656 26.839844 C 25.523438 27.589844 24.777344 27.289062 24.550781 26.839844 C 24.253906 26.464844 24.179688 25.714844 24.328125 25.191406 C 24.476562 24.742188 25.074219 24.292969 25.601562 24.144531 C 26.050781 24.070312 26.796875 24.21875 27.171875 24.59375 C 27.546875 24.894531 27.769531 25.640625 27.695312 26.164062 C 27.621094 26.613281 27.171875 27.214844 26.722656 27.4375 C 26.273438 27.664062 25.449219 27.664062 25.074219 27.363281 C 24.628906 26.988281 24.179688 25.417969 24.476562 24.894531 C 24.777344 24.367188 26.199219 23.996094 26.722656 24.144531 C 27.171875 24.292969 27.621094 24.96875 27.769531 25.417969 C 27.847656 25.792969 27.546875 26.613281 27.546875 26.613281 " clip-rule="nonzero"/></clipPath><clipPath id="86ea35e1e9"><path d="M 23.480469 24.195312 L 27.007812 24.195312 L 27.007812 27.6875 L 23.480469 27.6875 Z M 23.480469 24.195312 " clip-rule="nonzero"/></clipPath><clipPath id="7cf1789884"><path d="M 25.226562 27.664062 C 23.503906 26.539062 23.429688 25.792969 23.578125 25.34375 C 23.804688 24.894531 24.402344 24.367188 24.851562 24.292969 C 25.300781 24.144531 26.050781 24.367188 26.421875 24.742188 C 26.722656 25.042969 27.023438 25.792969 26.871094 26.242188 C 26.796875 26.691406 26.347656 27.363281 25.898438 27.511719 C 25.523438 27.738281 24.703125 27.664062 24.328125 27.4375 C 23.878906 27.214844 23.429688 26.539062 23.503906 26.089844 C 23.578125 25.492188 24.628906 24.292969 25.226562 24.21875 C 25.75 24.21875 26.796875 25.191406 26.949219 25.714844 C 27.097656 26.089844 26.949219 26.613281 26.648438 26.914062 C 26.421875 27.289062 25.300781 27.664062 25.300781 27.664062 " clip-rule="nonzero"/></clipPath><clipPath id="0f8a39ebfa"><path d="M 23.691406 22.796875 L 27.246094 22.796875 L 27.246094 26.652344 L 23.691406 26.652344 Z M 23.691406 22.796875 " clip-rule="nonzero"/></clipPath><clipPath id="15d63eec07"><path d="M 27.246094 24.816406 C 26.050781 26.539062 25.300781 26.691406 24.851562 26.464844 C 24.328125 26.316406 23.878906 25.714844 23.730469 25.191406 C 23.652344 24.742188 23.878906 23.996094 24.179688 23.621094 C 24.550781 23.246094 25.300781 23.019531 25.75 23.097656 C 26.273438 23.171875 26.871094 23.621094 27.097656 24.070312 C 27.320312 24.519531 27.246094 25.34375 27.023438 25.714844 C 26.722656 26.164062 26.050781 26.691406 25.601562 26.613281 C 24.925781 26.539062 23.730469 25.492188 23.730469 24.816406 C 23.652344 24.21875 24.550781 23.097656 25.074219 22.871094 C 25.449219 22.722656 25.972656 22.871094 26.347656 23.019531 C 26.722656 23.320312 27.246094 24.445312 27.246094 24.445312 " clip-rule="nonzero"/></clipPath><clipPath id="81578f69e6"><path d="M 23.875 24.21875 L 27.175781 24.21875 L 27.175781 27.023438 L 23.875 27.023438 Z M 23.875 24.21875 " clip-rule="nonzero"/></clipPath><clipPath id="3087dbdab8"><path d="M 27.171875 25.191406 C 25.75 27.511719 24.328125 27.140625 24.027344 26.613281 C 23.730469 26.164062 24.027344 24.742188 24.476562 24.367188 C 24.925781 23.996094 26.796875 24.519531 26.796875 24.519531 " clip-rule="nonzero"/></clipPath><clipPath id="2b7560dcc1"><path d="M 25.074219 23.019531 L 28.476562 23.019531 L 28.476562 25.863281 L 25.074219 25.863281 Z M 25.074219 23.019531 " clip-rule="nonzero"/></clipPath><clipPath id="2ca4d9a40e"><path d="M 28.445312 23.996094 C 26.949219 26.390625 25.523438 25.941406 25.226562 25.417969 C 24.925781 24.96875 25.226562 23.546875 25.675781 23.171875 C 26.125 22.796875 27.996094 23.320312 27.996094 23.320312 " clip-rule="nonzero"/></clipPath><clipPath id="543bfda878"><path d="M 22.691406 23.734375 L 28.402344 23.734375 L 28.402344 30.851562 L 22.691406 30.851562 Z M 22.691406 23.734375 " clip-rule="nonzero"/></clipPath><clipPath id="3dbabe375b"><path d="M 28.371094 26.242188 C 26.125 30.65625 25.449219 30.882812 24.925781 30.808594 C 24.328125 30.734375 23.730469 30.285156 23.429688 29.683594 C 22.90625 28.859375 22.457031 26.839844 22.832031 25.941406 C 23.128906 25.191406 24.027344 24.367188 24.703125 24.292969 C 25.300781 24.292969 26.421875 25.117188 26.722656 25.640625 C 26.949219 26.164062 26.722656 27.0625 26.421875 27.511719 C 26.050781 27.960938 25.300781 28.410156 24.703125 28.335938 C 24.179688 28.335938 23.355469 27.886719 23.054688 27.363281 C 22.753906 26.914062 22.679688 26.015625 22.980469 25.492188 C 23.28125 24.96875 24.476562 24.292969 25.152344 24.367188 C 25.675781 24.367188 26.273438 24.894531 26.648438 25.492188 C 27.097656 26.316406 27.546875 28.410156 27.097656 29.308594 C 26.796875 30.058594 25.523438 30.882812 24.925781 30.808594 C 24.253906 30.65625 23.28125 29.609375 23.203125 28.710938 C 23.054688 27.589844 24.402344 24.96875 25.300781 24.292969 C 26.050781 23.769531 27.246094 23.621094 27.769531 23.917969 C 28.296875 24.21875 28.371094 26.242188 28.371094 26.242188 " clip-rule="nonzero"/></clipPath><clipPath id="10d8c3109c"><path d="M 21.597656 26.546875 L 25.21875 26.546875 L 25.21875 30.238281 L 21.597656 30.238281 Z M 21.597656 26.546875 " clip-rule="nonzero"/></clipPath><clipPath id="cf5b6d36c7"><path d="M 22.15625 27.0625 C 25.152344 27.4375 25.300781 28.261719 25.152344 28.785156 C 25 29.234375 24.476562 29.835938 24.027344 30.058594 C 23.578125 30.207031 22.753906 30.058594 22.382812 29.835938 C 21.933594 29.535156 21.558594 28.785156 21.632812 28.261719 C 21.632812 27.8125 22.007812 27.0625 22.457031 26.839844 C 22.832031 26.539062 23.652344 26.464844 24.101562 26.691406 C 24.550781 26.914062 25.074219 27.511719 25.152344 28.039062 C 25.226562 28.5625 24.851562 29.609375 24.402344 29.984375 C 23.878906 30.285156 22.382812 30.359375 21.933594 29.984375 C 21.484375 29.535156 21.632812 27.511719 21.632812 27.511719 " clip-rule="nonzero"/></clipPath><clipPath id="e04bbad93a"><path d="M 21.945312 26.589844 L 25.550781 26.589844 L 25.550781 30.195312 L 21.945312 30.195312 Z M 21.945312 26.589844 " clip-rule="nonzero"/></clipPath><clipPath id="fad5193837"><path d="M 24.925781 29.683594 C 22.90625 30.058594 22.230469 29.535156 22.082031 29.085938 C 21.855469 28.636719 21.933594 27.886719 22.230469 27.4375 C 22.457031 27.0625 23.128906 26.613281 23.652344 26.613281 C 24.179688 26.613281 24.851562 26.988281 25.152344 27.363281 C 25.449219 27.738281 25.523438 28.5625 25.375 29.011719 C 25.226562 29.460938 24.628906 29.984375 24.101562 30.132812 C 23.652344 30.285156 22.832031 30.132812 22.53125 29.757812 C 22.15625 29.234375 22.007812 27.589844 22.457031 27.140625 C 22.832031 26.691406 24.253906 26.613281 24.777344 26.914062 C 25.226562 27.140625 25.523438 27.886719 25.523438 28.335938 C 25.601562 28.785156 25.074219 29.535156 25.074219 29.535156 " clip-rule="nonzero"/></clipPath><clipPath id="b3ebd6a0d7"><path d="M 38.136719 24.789062 L 178.621094 24.789062 L 178.621094 60.109375 L 38.136719 60.109375 Z M 38.136719 24.789062 " clip-rule="nonzero"/></clipPath><clipPath id="0da591e265"><path d="M 40.050781 24.894531 C 51.28125 27.511719 81.527344 26.691406 94.179688 27.511719 C 101.890625 28.113281 105.40625 29.011719 112.746094 29.683594 C 123.449219 30.582031 142.390625 30.433594 152.273438 31.929688 C 158.414062 32.828125 162.457031 33.953125 166.875 35.375 C 170.691406 36.648438 175.632812 38.445312 177.28125 39.714844 C 177.953125 40.164062 178.179688 40.539062 178.328125 41.140625 C 178.550781 41.960938 178.628906 43.234375 178.179688 44.207031 C 177.578125 45.480469 176.15625 46.605469 174.359375 47.652344 C 171.441406 49.300781 166.273438 50.046875 161.558594 51.769531 C 155.417969 53.941406 143.738281 60.605469 140.820312 60.003906 C 139.921875 59.78125 139.324219 59.03125 139.246094 58.433594 C 139.171875 57.835938 139.847656 56.710938 140.371094 56.5625 C 140.96875 56.335938 142.542969 57.011719 142.765625 57.609375 C 142.992188 58.132812 142.167969 59.78125 141.570312 59.929688 C 140.96875 60.082031 139.472656 59.183594 139.324219 58.65625 C 139.097656 58.058594 139.472656 57.308594 140.144531 56.636719 C 142.542969 54.242188 155.417969 50.046875 161.40625 47.953125 C 165.675781 46.378906 170.765625 45.40625 172.5625 44.507812 C 173.238281 44.207031 173.535156 44.058594 173.835938 43.683594 C 174.0625 43.234375 174.359375 42.410156 174.136719 41.960938 C 173.613281 41.0625 171.289062 40.691406 169.195312 39.941406 C 165.976562 38.816406 160.734375 37.023438 156.390625 36.125 C 151.898438 35.226562 148.15625 34.925781 142.617188 34.476562 C 134.457031 33.800781 120.832031 33.800781 111.921875 33.128906 C 104.957031 32.605469 99.941406 31.40625 93.28125 31.03125 C 85.644531 30.582031 76.808594 31.03125 68.574219 30.734375 C 60.339844 30.433594 49.183594 30.359375 43.941406 29.085938 C 41.320312 28.488281 39 27.664062 38.402344 26.691406 C 38.101562 26.164062 38.179688 25.34375 38.476562 25.042969 C 38.703125 24.742188 40.050781 24.894531 40.050781 24.894531 " clip-rule="nonzero"/></clipPath><clipPath id="1ee6e8f200"><path d="M 99.21875 52.203125 L 189.988281 52.203125 L 189.988281 69.882812 L 99.21875 69.882812 Z M 99.21875 52.203125 " clip-rule="nonzero"/></clipPath><clipPath id="40c7919579"><path d="M 100.390625 52.519531 C 120.230469 51.546875 133.707031 53.191406 139.472656 54.613281 C 142.390625 55.363281 143.738281 55.886719 145.910156 57.011719 C 148.605469 58.359375 151.601562 61.054688 154.296875 62.402344 C 156.46875 63.523438 158.1875 64.347656 160.585938 64.945312 C 163.429688 65.695312 167.621094 66.371094 170.316406 66.070312 C 172.1875 65.921875 173.6875 65.246094 174.957031 64.574219 C 176.082031 64.046875 177.128906 63.226562 177.878906 62.550781 C 178.402344 62.027344 178.925781 61.726562 179.226562 61.054688 C 179.675781 59.929688 179.152344 57.308594 179.675781 56.1875 C 180.050781 55.4375 180.722656 54.765625 181.324219 54.691406 C 181.847656 54.613281 182.445312 54.914062 183.042969 55.363281 C 184.019531 56.113281 184.917969 58.433594 186.039062 59.257812 C 187.085938 59.929688 188.882812 59.707031 189.410156 60.378906 C 189.859375 60.902344 189.933594 62.027344 189.632812 62.550781 C 189.410156 63 188.734375 63.375 188.210938 63.375 C 187.6875 63.449219 186.9375 63.148438 186.636719 62.699219 C 186.339844 62.175781 186.339844 60.980469 186.714844 60.53125 C 186.9375 60.082031 187.761719 59.707031 188.210938 59.78125 C 188.808594 59.929688 189.933594 61.203125 189.933594 61.800781 C 189.859375 62.402344 189.109375 63.226562 188.433594 63.375 C 187.164062 63.675781 183.792969 62.476562 182.671875 61.351562 C 181.847656 60.53125 181.324219 58.734375 181.546875 58.132812 C 181.773438 57.683594 182.820312 57.160156 183.121094 57.386719 C 183.570312 57.683594 182.96875 60.753906 182.519531 62.027344 C 182.144531 63.074219 181.695312 63.75 180.875 64.574219 C 179.824219 65.695312 178.253906 66.96875 176.53125 67.792969 C 174.660156 68.765625 172.265625 69.4375 170.09375 69.664062 C 167.921875 69.960938 165.675781 69.664062 163.652344 69.363281 C 161.855469 69.0625 160.285156 68.613281 158.488281 68.015625 C 156.46875 67.34375 154.445312 66.519531 152.273438 65.320312 C 149.503906 63.898438 145.835938 60.980469 143.289062 59.707031 C 141.492188 58.882812 140.820312 58.582031 138.5 58.058594 C 133.183594 56.785156 118.210938 54.839844 111.097656 54.464844 C 106.679688 54.316406 101.8125 55.738281 100.242188 54.914062 C 99.570312 54.613281 99.195312 54.015625 99.269531 53.640625 C 99.269531 53.191406 100.390625 52.519531 100.390625 52.519531 " clip-rule="nonzero"/></clipPath><clipPath id="f2af30dd15"><path d="M 181.800781 42.742188 L 189.203125 42.742188 L 189.203125 49.644531 L 181.800781 49.644531 Z M 181.800781 42.742188 " clip-rule="nonzero"/></clipPath><clipPath id="b8a76f9cde"><path d="M 181.847656 46.453125 C 182.070312 45.554688 181.996094 45.480469 182.070312 45.40625 C 182.070312 45.257812 182.296875 45.105469 182.296875 44.957031 C 182.371094 44.882812 182.371094 44.808594 182.371094 44.734375 C 182.445312 44.734375 182.445312 44.734375 182.519531 44.65625 C 182.671875 44.507812 182.820312 44.058594 182.96875 43.910156 C 183.121094 43.757812 183.417969 43.835938 183.492188 43.757812 C 183.492188 43.757812 183.492188 43.757812 183.570312 43.683594 C 183.644531 43.683594 184.167969 43.386719 184.242188 43.386719 C 184.242188 43.386719 184.242188 43.308594 184.242188 43.308594 C 184.316406 43.308594 184.917969 42.859375 185.367188 42.785156 C 185.890625 42.710938 187.164062 43.085938 187.386719 43.234375 C 187.460938 43.308594 187.460938 43.386719 187.535156 43.460938 C 187.6875 43.535156 187.984375 43.460938 188.210938 43.609375 C 188.585938 43.910156 189.109375 45.183594 189.183594 45.855469 C 189.183594 46.53125 188.808594 47.128906 188.433594 47.652344 C 187.984375 48.25 186.863281 49.074219 186.636719 49.375 C 186.5625 49.449219 186.5625 49.523438 186.488281 49.523438 C 186.414062 49.523438 186.339844 49.449219 186.1875 49.449219 C 185.816406 49.449219 184.765625 49.75 184.167969 49.597656 C 183.492188 49.449219 182.820312 49 182.445312 48.476562 C 182.070312 47.953125 181.847656 46.453125 181.847656 46.453125 " clip-rule="nonzero"/></clipPath><clipPath id="77a51ce774"><path d="M 118.050781 56.785156 L 138.160156 56.785156 L 138.160156 69.148438 L 118.050781 69.148438 Z M 118.050781 56.785156 " clip-rule="nonzero"/></clipPath><clipPath id="4594a57397"><path d="M 124.273438 59.105469 C 120.53125 68.390625 120.082031 68.765625 119.558594 68.765625 C 119.035156 68.765625 118.136719 67.941406 118.058594 67.417969 C 117.984375 66.96875 118.433594 66.445312 118.957031 65.769531 C 120.382812 64.046875 126.070312 59.03125 128.019531 58.207031 C 128.839844 57.835938 129.367188 57.757812 129.890625 57.984375 C 130.414062 58.285156 130.863281 58.957031 131.011719 59.78125 C 131.3125 61.054688 131.011719 64.273438 130.339844 65.171875 C 129.890625 65.695312 128.839844 66.070312 128.691406 65.921875 C 128.390625 65.546875 134.007812 58.058594 135.578125 57.160156 C 136.179688 56.785156 136.703125 56.785156 137.152344 56.9375 C 137.527344 57.085938 138.050781 57.609375 138.125 58.058594 C 138.273438 58.582031 137.824219 59.554688 137.375 59.855469 C 137 60.15625 136.253906 60.15625 135.878906 59.929688 C 135.429688 59.707031 134.90625 58.65625 134.980469 58.207031 C 134.980469 57.683594 135.503906 57.160156 135.878906 56.9375 C 136.328125 56.785156 137.078125 56.785156 137.449219 57.085938 C 137.824219 57.386719 138.273438 58.132812 138.125 58.882812 C 137.898438 60.902344 132.660156 67.191406 131.011719 68.464844 C 130.414062 68.914062 130.039062 69.140625 129.515625 69.0625 C 128.765625 68.988281 127.417969 68.164062 127.042969 67.191406 C 126.371094 65.695312 127.34375 60.304688 128.09375 60.082031 C 128.390625 59.929688 129.367188 60.679688 129.367188 61.277344 C 129.289062 62.625 122.253906 67.492188 120.605469 68.316406 C 120.007812 68.691406 119.632812 68.839844 119.183594 68.691406 C 118.808594 68.613281 118.285156 68.316406 118.136719 67.792969 C 117.761719 66.292969 120.605469 59.257812 121.953125 58.058594 C 122.476562 57.535156 123.226562 57.386719 123.601562 57.535156 C 123.976562 57.757812 124.273438 59.105469 124.273438 59.105469 " clip-rule="nonzero"/></clipPath><clipPath id="8cba5f2d1b"><path d="M 45.421875 63.574219 L 212.078125 63.574219 L 212.078125 113.484375 L 45.421875 113.484375 Z M 45.421875 63.574219 " clip-rule="nonzero"/></clipPath><clipPath id="dae85c5f9c"><path d="M 119.632812 66.070312 C 75.3125 82.242188 67 85.984375 61.835938 89.128906 C 58.691406 91 56.667969 92.574219 54.648438 94.59375 C 52.851562 96.390625 51.054688 98.410156 50.15625 100.359375 C 49.484375 101.855469 48.882812 103.726562 49.257812 104.925781 C 49.558594 105.898438 50.304688 106.496094 51.503906 107.171875 C 54.347656 108.519531 61.238281 108.96875 67.300781 109.417969 C 75.535156 110.089844 85.867188 110.089844 96.574219 109.867188 C 109.601562 109.566406 123.75 107.921875 139.921875 107.097656 C 160.507812 106.046875 203.78125 102.082031 210.222656 104.476562 C 211.417969 104.925781 211.941406 105.523438 212.019531 106.125 C 212.09375 106.648438 211.34375 107.695312 210.820312 107.769531 C 210.222656 107.921875 208.796875 107.097656 208.648438 106.574219 C 208.574219 105.972656 209.472656 104.550781 209.996094 104.476562 C 210.59375 104.402344 211.941406 105.375 212.019531 105.898438 C 212.09375 106.496094 211.570312 107.246094 210.445312 107.84375 C 204.457031 110.839844 161.332031 109.34375 140.820312 110.390625 C 124.574219 111.214844 110.425781 112.9375 97.246094 113.308594 C 86.242188 113.535156 75.835938 113.609375 67.078125 112.9375 C 60.414062 112.335938 52.851562 111.964844 49.332031 110.089844 C 47.460938 109.117188 46.339844 107.769531 45.8125 106.199219 C 45.214844 104.699219 45.363281 102.902344 45.964844 101.105469 C 46.789062 98.5625 49.484375 95.117188 51.652344 92.722656 C 53.601562 90.550781 55.695312 88.980469 58.167969 87.257812 C 60.9375 85.308594 63.707031 83.886719 67.824219 81.867188 C 74.414062 78.648438 86.167969 73.929688 94.703125 70.859375 C 102.1875 68.164062 111.847656 65.023438 116.1875 64.125 C 117.910156 63.75 119.332031 63.375 120.007812 63.75 C 120.457031 63.972656 120.679688 64.648438 120.605469 65.023438 C 120.53125 65.394531 119.632812 66.070312 119.632812 66.070312 " clip-rule="nonzero"/></clipPath><clipPath id="c2b9abd7d8"><path d="M 220.839844 19.039062 L 223.261719 19.039062 L 223.261719 21.527344 L 220.839844 21.527344 Z M 220.839844 19.039062 " clip-rule="nonzero"/></clipPath><clipPath id="25c1b165f0"><path d="M 223.246094 20.328125 C 221.300781 21.300781 220.925781 19.726562 221.152344 19.503906 C 221.449219 19.203125 222.949219 19.503906 223.097656 19.800781 C 223.246094 20.175781 222.5 21.449219 222.125 21.523438 C 221.75 21.523438 220.851562 20.699219 220.851562 20.328125 C 220.851562 19.953125 221.449219 19.128906 221.824219 19.054688 C 222.273438 19.054688 223.246094 20.175781 223.246094 20.175781 " clip-rule="nonzero"/></clipPath><clipPath id="5e7f4be1b0"><path d="M 208.851562 19.046875 L 263.808594 19.046875 L 263.808594 63.125 L 208.851562 63.125 Z M 208.851562 19.046875 " clip-rule="nonzero"/></clipPath><clipPath id="6a963118c9"><path d="M 223.171875 20.402344 C 212.167969 49.675781 211.941406 52.519531 212.839844 54.539062 C 213.515625 56.113281 215.085938 57.160156 216.511719 57.910156 C 217.933594 58.65625 219.429688 58.734375 221.226562 58.882812 C 223.472656 59.105469 226.617188 59.105469 228.863281 58.65625 C 230.734375 58.285156 232.382812 57.609375 233.878906 56.710938 C 235.375 55.886719 236.648438 54.765625 237.847656 53.417969 C 239.34375 51.769531 240.617188 50.125 241.816406 47.503906 C 243.761719 43.011719 245.484375 32.902344 246.90625 28.488281 C 247.65625 26.089844 248.179688 23.917969 248.925781 22.945312 C 249.226562 22.496094 249.527344 22.273438 249.898438 22.125 C 250.347656 22.046875 251.171875 22.199219 251.546875 22.421875 C 251.847656 22.722656 252.070312 22.945312 252.222656 23.546875 C 252.59375 24.894531 252.59375 28.1875 252.070312 31.257812 C 251.246094 36.199219 247.128906 45.183594 246.15625 49.898438 C 245.632812 52.667969 245.332031 54.839844 245.558594 56.636719 C 245.707031 57.757812 245.933594 59.03125 246.679688 59.480469 C 247.355469 60.003906 248.851562 59.78125 249.976562 59.332031 C 251.324219 58.808594 252.820312 57.535156 254.019531 56.113281 C 255.515625 54.242188 256.714844 51.246094 257.835938 48.699219 C 258.960938 46.082031 259.332031 41.363281 260.679688 40.390625 C 261.355469 39.867188 262.476562 39.941406 263.003906 40.242188 C 263.375 40.613281 263.601562 41.289062 263.527344 42.1875 C 263.300781 44.433594 259.332031 51.171875 257.386719 54.089844 C 256.113281 56.039062 254.992188 57.460938 253.71875 58.507812 C 252.746094 59.40625 251.847656 59.929688 250.648438 60.53125 C 249.300781 61.128906 247.503906 61.878906 246.007812 61.800781 C 244.433594 61.800781 242.414062 61.203125 241.441406 60.304688 C 240.617188 59.554688 240.242188 58.285156 240.09375 57.234375 C 239.867188 56.1875 239.941406 55.511719 240.167969 53.941406 C 240.691406 50.199219 244.136719 40.390625 245.484375 34.925781 C 246.457031 30.808594 246.457031 25.867188 247.578125 23.996094 C 248.105469 23.171875 248.925781 22.648438 249.453125 22.648438 C 249.976562 22.648438 250.574219 23.171875 250.875 23.546875 C 251.097656 23.84375 251.171875 24.367188 251.023438 24.742188 C 250.949219 25.191406 250.5 25.792969 250.050781 26.015625 C 249.601562 26.164062 248.851562 26.164062 248.402344 25.941406 C 248.027344 25.640625 247.578125 24.96875 247.578125 24.519531 C 247.503906 23.996094 247.878906 23.320312 248.253906 23.019531 C 248.628906 22.722656 249.453125 22.496094 249.898438 22.722656 C 250.347656 22.945312 251.171875 23.917969 251.097656 24.445312 C 251.023438 25.042969 249.75 26.164062 249.152344 26.164062 C 248.554688 26.164062 247.730469 25.265625 247.578125 24.667969 C 247.429688 24.21875 248.179688 23.171875 248.105469 23.097656 C 248.027344 23.097656 247.578125 23.996094 247.578125 23.996094 C 247.65625 24.070312 248.253906 22.945312 248.628906 22.796875 C 249.003906 22.570312 249.527344 22.496094 249.898438 22.722656 C 250.425781 23.019531 250.875 23.769531 251.023438 24.742188 C 251.398438 26.988281 249.824219 31.855469 248.777344 35.972656 C 247.503906 41.0625 244.285156 49.226562 243.835938 53.191406 C 243.613281 55.289062 243.3125 57.308594 244.210938 58.058594 C 245.035156 58.734375 247.578125 57.984375 248.851562 57.535156 C 250.050781 57.160156 250.949219 56.410156 251.773438 55.738281 C 252.671875 54.988281 253.195312 54.464844 254.019531 53.191406 C 255.738281 50.648438 258.808594 41.738281 260.679688 40.390625 C 261.355469 39.867188 262.105469 39.792969 262.628906 40.089844 C 263.078125 40.316406 263.527344 40.914062 263.601562 41.738281 C 263.824219 43.683594 261.578125 48.625 260.15625 51.769531 C 258.808594 54.613281 257.386719 57.910156 255.515625 59.78125 C 254.09375 61.277344 252.296875 62.328125 250.574219 62.777344 C 248.925781 63.226562 246.605469 63.074219 245.332031 62.699219 C 244.585938 62.402344 244.136719 62.027344 243.613281 61.429688 C 243.011719 60.679688 242.339844 59.554688 242.113281 58.207031 C 241.738281 56.335938 242.113281 53.640625 242.414062 51.171875 C 242.789062 48.476562 243.535156 45.707031 244.359375 42.785156 C 245.332031 39.640625 247.355469 36.421875 248.105469 33.128906 C 248.851562 29.835938 248.179688 24.367188 248.925781 22.945312 C 249.226562 22.421875 249.527344 22.273438 249.898438 22.125 C 250.347656 22.046875 251.171875 22.125 251.546875 22.421875 C 251.921875 22.722656 252.144531 23.171875 252.222656 23.996094 C 252.445312 26.613281 248.554688 37.097656 247.207031 41.664062 C 246.382812 44.65625 246.082031 46.605469 244.960938 48.925781 C 243.761719 51.472656 241.816406 54.316406 240.09375 56.1875 C 238.746094 57.609375 237.546875 58.582031 235.898438 59.554688 C 234.027344 60.679688 231.78125 61.652344 229.3125 62.101562 C 226.316406 62.699219 221.898438 62.625 219.128906 62.25 C 217.035156 61.878906 215.238281 61.203125 213.816406 60.453125 C 212.691406 59.855469 211.867188 59.257812 211.121094 58.433594 C 210.371094 57.535156 209.621094 56.710938 209.324219 55.289062 C 208.722656 52.96875 208.949219 48.625 209.472656 45.632812 C 209.921875 42.9375 210.894531 41.0625 212.09375 38.070312 C 214.113281 33.277344 218.90625 21.675781 220.777344 19.726562 C 221.300781 19.203125 221.675781 19.054688 222.050781 19.128906 C 222.5 19.203125 223.171875 20.402344 223.171875 20.402344 " clip-rule="nonzero"/></clipPath><clipPath id="b7af38eae5"><path d="M 260.796875 40.796875 L 283.765625 40.796875 L 283.765625 63.109375 L 260.796875 63.109375 Z M 260.796875 40.796875 " clip-rule="nonzero"/></clipPath><clipPath id="8d38126d5a"><path d="M 263.601562 42.113281 C 266.671875 45.78125 276.777344 45.480469 278.574219 46.828125 C 279.171875 47.277344 279.25 47.578125 279.324219 48.328125 C 279.546875 49.824219 277.824219 53.492188 277.675781 55.4375 C 277.527344 56.710938 277.226562 57.910156 277.824219 58.65625 C 278.648438 59.632812 282.316406 58.957031 283.066406 59.78125 C 283.589844 60.304688 283.738281 61.429688 283.441406 61.878906 C 283.140625 62.402344 281.570312 62.777344 281.042969 62.550781 C 280.59375 62.402344 280.222656 61.652344 280.144531 61.203125 C 280.144531 60.679688 280.445312 59.929688 280.820312 59.707031 C 281.34375 59.40625 282.46875 59.40625 282.992188 59.707031 C 283.367188 59.929688 283.738281 60.679688 283.664062 61.128906 C 283.589844 61.726562 282.992188 62.476562 282.316406 62.777344 C 281.34375 63.226562 279.472656 63 278.199219 62.550781 C 277.003906 62.25 275.578125 61.578125 274.90625 60.605469 C 274.15625 59.40625 274.007812 57.386719 274.15625 55.664062 C 274.230469 53.640625 276.851562 50.574219 275.953125 49.148438 C 274.90625 47.503906 268.167969 48.402344 265.773438 47.726562 C 264.273438 47.351562 263.226562 46.902344 262.402344 46.304688 C 261.878906 45.855469 261.503906 45.480469 261.207031 44.882812 C 260.90625 44.058594 260.757812 42.410156 261.054688 41.738281 C 261.355469 41.214844 262.105469 40.765625 262.476562 40.839844 C 262.925781 40.839844 263.601562 42.113281 263.601562 42.113281 " clip-rule="nonzero"/></clipPath><clipPath id="482c750257"><path d="M 300.367188 15.542969 L 335.238281 15.542969 L 335.238281 56 L 300.367188 56 Z M 300.367188 15.542969 " clip-rule="nonzero"/></clipPath><clipPath id="61863bd3c1"><path d="M 313.238281 17.929688 C 311.589844 28.9375 308.371094 40.242188 306.875 45.257812 C 306.050781 48.027344 305.453125 50.347656 304.851562 51.695312 C 304.476562 52.371094 304.328125 52.894531 303.878906 53.117188 C 303.429688 53.417969 302.679688 53.566406 302.308594 53.34375 C 301.78125 53.042969 301.332031 52.292969 301.257812 51.246094 C 301.035156 48.851562 304.402344 42.785156 305.375 38.292969 C 306.425781 33.726562 306.425781 27.960938 307.25 24.070312 C 307.773438 21.375 308.519531 18.53125 309.269531 17.257812 C 309.570312 16.582031 310.390625 16.132812 310.390625 16.058594 C 310.316406 16.058594 309.34375 16.882812 309.34375 16.808594 C 309.34375 16.808594 310.09375 15.835938 310.542969 15.757812 C 310.992188 15.609375 311.816406 15.683594 312.113281 16.058594 C 312.636719 16.65625 312.636719 17.78125 312.488281 19.429688 C 312.1875 24.742188 306.425781 48.101562 304.179688 52.371094 C 303.503906 53.492188 302.308594 54.164062 302.382812 54.242188 C 302.457031 54.316406 303.804688 53.417969 303.878906 53.417969 C 303.878906 53.492188 302.980469 54.316406 302.605469 54.390625 C 302.15625 54.539062 301.707031 54.390625 301.332031 54.164062 C 300.960938 53.941406 300.585938 53.34375 300.511719 52.816406 C 300.433594 52.21875 300.660156 51.769531 301.183594 50.871094 C 302.980469 47.953125 312.488281 37.996094 316.679688 33.800781 C 319.226562 31.183594 321.097656 29.234375 323.269531 27.738281 C 325.066406 26.613281 326.863281 25.640625 328.433594 25.34375 C 329.859375 25.117188 331.355469 25.042969 332.402344 25.640625 C 333.375 26.164062 334.050781 27.4375 334.574219 28.5625 C 335.023438 29.609375 335.097656 30.957031 335.097656 32.230469 C 335.097656 33.503906 334.875 34.699219 334.351562 36.046875 C 333.675781 38.070312 332.476562 40.539062 330.605469 42.859375 C 328.210938 46.082031 323.34375 50.496094 320.199219 52.742188 C 317.953125 54.316406 315.484375 56.039062 314.136719 55.960938 C 313.386719 55.960938 312.636719 55.363281 312.488281 54.839844 C 312.339844 54.242188 312.863281 52.894531 313.3125 52.667969 C 313.835938 52.371094 315.035156 52.667969 315.410156 53.042969 C 315.78125 53.34375 315.933594 54.164062 315.859375 54.613281 C 315.78125 55.0625 315.257812 55.664062 314.808594 55.886719 C 314.285156 56.039062 313.535156 55.960938 313.164062 55.664062 C 312.714844 55.363281 312.339844 54.691406 312.339844 54.164062 C 312.414062 53.714844 312.789062 53.042969 313.164062 52.742188 C 313.535156 52.445312 314.359375 52.371094 314.808594 52.59375 C 315.257812 52.742188 315.859375 53.34375 315.859375 53.867188 C 315.859375 54.464844 314.960938 55.8125 314.433594 55.960938 C 313.910156 56.113281 313.011719 55.589844 312.636719 55.214844 C 312.414062 54.765625 312.339844 54.089844 312.488281 53.566406 C 312.714844 52.96875 313.386719 52.21875 313.910156 51.84375 C 314.433594 51.546875 314.960938 51.84375 315.632812 51.546875 C 317.207031 50.871094 320.050781 48.699219 322.222656 46.753906 C 324.617188 44.507812 327.761719 41.511719 329.332031 38.742188 C 330.605469 36.496094 331.503906 33.800781 331.578125 31.929688 C 331.65625 30.65625 331.429688 29.085938 330.832031 28.710938 C 330.457031 28.335938 329.933594 28.488281 329.257812 28.710938 C 327.835938 29.085938 325.738281 30.207031 323.34375 32.082031 C 318.476562 36.046875 307.171875 51.84375 303.65625 53.792969 C 302.605469 54.316406 301.859375 54.464844 301.332031 54.164062 C 300.882812 53.941406 300.433594 52.894531 300.511719 52.371094 C 300.660156 51.84375 302.15625 51.171875 302.15625 51.171875 C 302.15625 51.097656 300.960938 52.292969 300.660156 52.070312 C 299.3125 51.023438 306.574219 20.402344 309.34375 16.808594 C 310.019531 15.910156 310.839844 15.609375 311.367188 15.683594 C 311.964844 15.835938 312.5625 16.65625 312.714844 17.632812 C 313.164062 19.726562 310.542969 25.042969 309.867188 28.5625 C 309.269531 31.855469 309.496094 34.925781 308.820312 38.21875 C 308.148438 41.738281 306.800781 46.378906 305.75 49.074219 C 305.152344 50.796875 304.703125 52.59375 303.878906 53.117188 C 303.429688 53.492188 302.679688 53.566406 302.308594 53.34375 C 301.78125 53.042969 301.332031 52.371094 301.257812 51.246094 C 300.960938 47.351562 308.371094 29.160156 309.71875 23.320312 C 310.316406 20.699219 309.941406 18.605469 310.617188 17.554688 C 310.992188 16.957031 311.664062 16.507812 312.113281 16.582031 C 312.5625 16.65625 313.238281 17.929688 313.238281 17.929688 " clip-rule="nonzero"/></clipPath><clipPath id="57637ffee9"><path d="M 314.40625 25.3125 L 367.167969 25.3125 L 367.167969 185 L 314.40625 185 Z M 314.40625 25.3125 " clip-rule="nonzero"/></clipPath><clipPath id="9fbec5b42f"><path d="M 352.167969 28.488281 C 348.949219 28.410156 347.976562 28.710938 347.003906 29.535156 C 345.355469 30.957031 343.410156 34.027344 341.761719 37.023438 C 339.589844 40.988281 336.746094 46.980469 335.621094 51.546875 C 334.648438 55.4375 334.199219 58.207031 334.648438 62.777344 C 335.472656 70.410156 340.265625 83.886719 343.78125 92.796875 C 346.777344 100.433594 350.671875 105.597656 353.964844 113.234375 C 358.007812 122.519531 363.773438 136.96875 365.71875 144.753906 C 366.84375 149.171875 367.066406 151.941406 367.066406 155.386719 C 367.140625 158.679688 366.617188 162.347656 366.019531 164.96875 C 365.644531 166.914062 365.195312 168.1875 364.371094 169.835938 C 363.398438 171.78125 361.976562 174.25 360.554688 175.898438 C 359.355469 177.246094 358.308594 178.070312 356.808594 179.117188 C 354.789062 180.464844 351.792969 181.964844 349.171875 182.9375 C 346.703125 183.835938 344.757812 184.359375 341.460938 184.734375 C 335.996094 185.257812 323.496094 184.957031 319.003906 184.058594 C 317.054688 183.683594 315.484375 183.386719 314.882812 182.636719 C 314.511719 182.113281 314.511719 181.363281 314.734375 180.914062 C 314.960938 180.390625 316.007812 179.792969 316.605469 179.792969 C 317.128906 179.867188 317.730469 180.316406 317.953125 180.765625 C 318.253906 181.214844 318.253906 182.113281 317.953125 182.488281 C 317.578125 182.9375 316.007812 183.460938 315.410156 183.160156 C 314.960938 182.863281 314.511719 181.664062 314.660156 181.140625 C 314.808594 180.539062 315.410156 180.089844 316.382812 179.792969 C 319.824219 178.742188 335.921875 181.738281 341.613281 181.140625 C 344.53125 180.839844 345.953125 180.316406 348.199219 179.417969 C 350.671875 178.519531 353.890625 176.871094 355.613281 175.675781 C 356.660156 174.925781 357.109375 174.550781 357.933594 173.503906 C 359.355469 171.632812 361.601562 167.589844 362.5 164.667969 C 363.398438 162.046875 363.546875 159.578125 363.621094 156.734375 C 363.699219 153.515625 363.621094 150.667969 362.574219 146.328125 C 360.777344 138.539062 354.789062 123.867188 350.746094 114.507812 C 347.453125 106.871094 343.484375 101.332031 340.5625 94.070312 C 337.417969 86.433594 334.199219 75.503906 332.703125 69.8125 C 331.878906 66.820312 331.355469 65.097656 331.128906 62.777344 C 330.90625 60.453125 331.054688 58.132812 331.28125 55.886719 C 331.503906 53.640625 331.804688 51.921875 332.628906 49.375 C 334.050781 45.183594 337.792969 37.171875 339.890625 33.578125 C 341.164062 31.480469 342.0625 30.207031 343.257812 28.9375 C 344.15625 27.960938 345.128906 27.214844 346.179688 26.691406 C 347.152344 26.089844 348.199219 25.714844 349.324219 25.566406 C 350.445312 25.417969 352.019531 25.492188 352.84375 26.015625 C 353.441406 26.316406 354.113281 27.214844 353.964844 27.589844 C 353.890625 28.039062 352.167969 28.488281 352.167969 28.488281 " clip-rule="nonzero"/></clipPath><clipPath id="ce268abca4"><path d="M 197.167969 103.5625 L 232.089844 103.5625 L 232.089844 108.539062 L 197.167969 108.539062 Z M 197.167969 103.5625 " clip-rule="nonzero"/></clipPath><clipPath id="acfa26c22a"><path d="M 198.617188 105.449219 C 231.410156 103.953125 232.082031 104.699219 232.082031 105.300781 C 232.007812 105.824219 230.734375 106.945312 230.210938 106.871094 C 229.6875 106.871094 228.636719 105.523438 228.714844 104.925781 C 228.789062 104.402344 230.136719 103.503906 230.734375 103.578125 C 231.257812 103.652344 232.007812 104.550781 232.082031 105.074219 C 232.082031 105.675781 231.707031 106.347656 230.960938 106.796875 C 229.085938 107.921875 222.949219 107.84375 218.230469 108.070312 C 212.617188 108.371094 202.433594 108.894531 199.367188 108.144531 C 198.242188 107.921875 197.34375 107.546875 197.195312 107.097656 C 197.121094 106.648438 198.617188 105.449219 198.617188 105.449219 " clip-rule="nonzero"/></clipPath><clipPath id="91a49cf51f"><path d="M 198 98.234375 L 478.992188 98.234375 L 478.992188 190.378906 L 198 190.378906 Z M 198 98.234375 " clip-rule="nonzero"/></clipPath><clipPath id="a16c480fe8"><path d="M 199.140625 105 C 250.199219 101.105469 254.019531 101.632812 260.605469 101.40625 C 268.917969 101.183594 278.125 100.132812 288.757812 99.835938 C 302.605469 99.460938 325.738281 100.359375 336.597656 99.835938 C 342.136719 99.535156 344.308594 98.636719 349.25 98.5625 C 356.210938 98.410156 364.894531 99.460938 374.027344 100.285156 C 385.558594 101.332031 400.230469 102.453125 412.808594 104.550781 C 425.011719 106.574219 440.660156 110.015625 448.519531 112.5625 C 452.488281 113.910156 454.0625 114.734375 457.207031 116.453125 C 461.472656 118.777344 468.285156 123.191406 471.355469 125.664062 C 473.078125 126.9375 473.976562 127.535156 475.023438 129.03125 C 476.296875 130.679688 477.570312 133 478.167969 135.472656 C 478.84375 138.390625 479.066406 142.808594 478.394531 145.726562 C 477.792969 148.125 476.519531 149.769531 475.097656 151.867188 C 473.300781 154.488281 470.90625 157.109375 468.0625 159.953125 C 464.316406 163.695312 458.03125 168.9375 454.136719 172.082031 C 451.441406 174.25 450.242188 175.300781 447.171875 177.246094 C 442.007812 180.539062 430.027344 187.429688 425.3125 189.074219 C 423.214844 189.75 421.417969 190.273438 420.519531 189.898438 C 419.996094 189.597656 419.699219 188.925781 419.699219 188.402344 C 419.773438 187.878906 420.445312 186.90625 420.96875 186.679688 C 421.417969 186.457031 422.242188 186.679688 422.617188 186.980469 C 422.992188 187.277344 423.292969 188.027344 423.292969 188.476562 C 423.214844 189 422.765625 189.675781 422.394531 189.898438 C 421.945312 190.125 421.121094 190.199219 420.746094 189.972656 C 420.296875 189.75 419.773438 189.074219 419.699219 188.625 C 419.699219 188.101562 419.921875 187.429688 420.296875 187.054688 C 420.820312 186.605469 421.570312 186.90625 422.691406 186.457031 C 426.886719 184.882812 441.410156 176.871094 448.96875 171.632812 C 455.335938 167.214844 461.171875 161.824219 465.441406 157.632812 C 468.4375 154.710938 470.90625 151.941406 472.554688 149.472656 C 473.675781 147.75 474.574219 146.550781 474.949219 144.679688 C 475.472656 142.359375 475.25 138.691406 474.726562 136.371094 C 474.351562 134.496094 473.828125 133.226562 472.703125 131.726562 C 471.28125 129.78125 468.886719 128.132812 466.265625 126.1875 C 462.894531 123.71875 457.207031 120.199219 453.910156 118.476562 C 451.816406 117.351562 451.214844 117.054688 448.597656 116.15625 C 442.082031 114.058594 425.460938 110.089844 413.183594 107.996094 C 400.15625 105.824219 384.210938 104.625 372.457031 103.578125 C 363.546875 102.753906 355.386719 101.78125 348.722656 101.929688 C 344.007812 102.003906 341.984375 102.902344 336.597656 103.128906 C 325.738281 103.726562 301.484375 102.902344 287.707031 103.351562 C 277.527344 103.652344 269.367188 104.550781 261.355469 104.851562 C 254.617188 105 249.375 104.625 242.5625 104.925781 C 234.550781 105.300781 224.070312 106.722656 216.210938 107.097656 C 209.996094 107.472656 201.535156 108.445312 199.367188 107.394531 C 198.691406 107.097656 198.316406 106.574219 198.316406 106.125 C 198.316406 105.75 199.140625 105 199.140625 105 " clip-rule="nonzero"/></clipPath><clipPath id="26d68cd29e"><path d="M 177 183.398438 L 431 183.398438 L 431 264.265625 L 177 264.265625 Z M 177 183.398438 " clip-rule="nonzero"/></clipPath><clipPath id="9c51a9b7b9"><path d="M 178.101562 261.847656 C 191.28125 257.503906 206.328125 255.558594 215.011719 253.3125 C 221.824219 251.664062 226.839844 249.417969 232.90625 247.84375 C 239.195312 246.273438 244.960938 245.675781 252.144531 244.101562 C 261.65625 242.007812 273.332031 239.460938 284.863281 236.167969 C 298.1875 232.421875 315.332031 225.984375 327.386719 222.390625 C 336.296875 219.769531 342.660156 218.574219 350.671875 216.101562 C 359.429688 213.40625 368.789062 210.039062 377.921875 206.667969 C 387.355469 203.148438 397.6875 199.332031 406.445312 195.289062 C 414.382812 191.695312 425.3125 184.285156 428.53125 183.761719 C 429.355469 183.609375 429.804688 183.683594 430.179688 183.984375 C 430.628906 184.359375 431.003906 185.480469 430.777344 186.082031 C 430.628906 186.605469 429.503906 187.203125 428.980469 187.203125 C 428.457031 187.203125 427.785156 186.753906 427.558594 186.304688 C 427.335938 185.78125 427.484375 184.582031 427.859375 184.132812 C 428.234375 183.761719 428.980469 183.609375 429.503906 183.683594 C 429.953125 183.761719 430.628906 184.285156 430.777344 184.734375 C 430.925781 185.257812 430.851562 186.082031 430.253906 186.828125 C 428.683594 188.851562 422.917969 191.472656 417.375 194.167969 C 408.09375 198.734375 390.5 205.695312 378.746094 210.113281 C 369.011719 213.855469 360.253906 216.851562 351.71875 219.394531 C 344.230469 221.71875 338.617188 222.765625 330.308594 225.234375 C 318.328125 228.753906 300.882812 235.34375 286.882812 239.3125 C 274.15625 242.90625 259.78125 246.125 249.976562 248.21875 C 243.613281 249.640625 239.492188 249.941406 234.027344 251.289062 C 228.039062 252.710938 222.574219 255.109375 215.6875 256.828125 C 207 258.925781 192.179688 260.722656 185.664062 262.21875 C 182.519531 262.96875 180.050781 264.464844 178.628906 264.242188 C 177.953125 264.167969 177.429688 263.71875 177.28125 263.269531 C 177.203125 262.894531 178.101562 261.847656 178.101562 261.847656 " clip-rule="nonzero"/></clipPath></defs><g clip-path="url(#d1359a0f44)"><g clip-path="url(#1a143718c4)"><path fill="#ffffff" d="M 19.761719 21.300781 L 29.875 21.300781 L 29.875 31.105469 L 19.761719 31.105469 Z M 19.761719 21.300781 " fill-opacity="1" fill-rule="nonzero"/></g></g><g clip-path="url(#88a41b4f9a)"><g clip-path="url(#6781421df5)"><path fill="#ffffff" d="M 18.113281 21.300781 L 28.226562 21.300781 L 28.226562 31.105469 L 18.113281 31.105469 Z M 18.113281 21.300781 " fill-opacity="1" fill-rule="nonzero"/></g></g><g clip-path="url(#7e45333a33)"><g clip-path="url(#6ff4cf6f00)"><path fill="#ffffff" d="M 20.285156 21.898438 L 30.398438 21.898438 L 30.398438 31.707031 L 20.285156 31.707031 Z M 20.285156 21.898438 " fill-opacity="1" fill-rule="nonzero"/></g></g><g clip-path="url(#2d22afb98f)"><g clip-path="url(#5fb7cbcf15)"><path fill="#ffffff" d="M 20.285156 24.070312 L 30.398438 24.070312 L 30.398438 33.878906 L 20.285156 33.878906 Z M 20.285156 24.070312 " fill-opacity="1" fill-rule="nonzero"/></g></g><g clip-path="url(#9bb6622691)"><g clip-path="url(#5ed5912324)"><path fill="#ffffff" d="M 20.433594 20.25 L 31.066406 20.25 L 31.066406 31.421875 L 20.433594 31.421875 Z M 20.433594 20.25 " fill-opacity="1" fill-rule="nonzero"/></g></g><g clip-path="url(#278ca0f60c)"><g clip-path="url(#989d10070d)"><path fill="#ffffff" d="M 18.113281 21.300781 L 28.226562 21.300781 L 28.226562 31.105469 L 18.113281 31.105469 Z M 18.113281 21.300781 " fill-opacity="1" fill-rule="nonzero"/></g></g><g clip-path="url(#c34d8d3611)"><g clip-path="url(#50d0965227)"><path fill="#ffffff" d="M 20.660156 23.320312 L 30.316406 23.320312 L 30.316406 32.828125 L 20.660156 32.828125 Z M 20.660156 23.320312 " fill-opacity="1" fill-rule="nonzero"/></g></g><g clip-path="url(#e8457af2fa)"><g clip-path="url(#f57dfc8473)"><path fill="#ffffff" d="M 19.984375 20.699219 L 29.640625 20.699219 L 29.640625 30.207031 L 19.984375 30.207031 Z M 19.984375 20.699219 " fill-opacity="1" fill-rule="nonzero"/></g></g><g clip-path="url(#dc07cb3161)"><g clip-path="url(#39b1c4970c)"><path fill="#ffffff" d="M 19.910156 21.824219 L 29.269531 21.824219 L 29.269531 31.546875 L 19.910156 31.546875 Z M 19.910156 21.824219 " fill-opacity="1" fill-rule="nonzero"/></g></g><g clip-path="url(#1b61d38bd7)"><g clip-path="url(#ab2c77fd07)"><path fill="#ffffff" d="M 19.835938 21.449219 L 29.417969 21.449219 L 29.417969 31.105469 L 19.835938 31.105469 Z M 19.835938 21.449219 " fill-opacity="1" fill-rule="nonzero"/></g></g><g clip-path="url(#0259f8bcc5)"><g clip-path="url(#8bd3248148)"><path fill="#ffffff" d="M 19.6875 21.449219 L 29.269531 21.449219 L 29.269531 31.183594 L 19.6875 31.183594 Z M 19.6875 21.449219 " fill-opacity="1" fill-rule="nonzero"/></g></g><g clip-path="url(#118a74c5bc)"><g clip-path="url(#eb2c07dbf9)"><path fill="#ffffff" d="M 20.433594 21.449219 L 30.242188 21.449219 L 30.242188 31.871094 L 20.433594 31.871094 Z M 20.433594 21.449219 " fill-opacity="1" fill-rule="nonzero"/></g></g><g clip-path="url(#37b49c0caa)"><g clip-path="url(#4800d5e5b8)"><path fill="#ffffff" d="M 21.707031 22.945312 L 31.289062 22.945312 L 31.289062 32.605469 L 21.707031 32.605469 Z M 21.707031 22.945312 " fill-opacity="1" fill-rule="nonzero"/></g></g><g clip-path="url(#e997bf8714)"><g clip-path="url(#a123dd8fcc)"><path fill="#ffffff" d="M 22.230469 23.171875 L 31.425781 23.171875 L 31.425781 32.15625 L 22.230469 32.15625 Z M 22.230469 23.171875 " fill-opacity="1" fill-rule="nonzero"/></g></g><g clip-path="url(#66ca7941a4)"><g clip-path="url(#494b526b90)"><path fill="#ffffff" d="M 21.332031 21.148438 L 30.765625 21.148438 L 30.765625 30.65625 L 21.332031 30.65625 Z M 21.332031 21.148438 " fill-opacity="1" fill-rule="nonzero"/></g></g><g clip-path="url(#86ea35e1e9)"><g clip-path="url(#7cf1789884)"><path fill="#ffffff" d="M 20.507812 21.226562 L 30.015625 21.226562 L 30.015625 30.734375 L 20.507812 30.734375 Z M 20.507812 21.226562 " fill-opacity="1" fill-rule="nonzero"/></g></g><g clip-path="url(#0f8a39ebfa)"><g clip-path="url(#15d63eec07)"><path fill="#ffffff" d="M 20.734375 19.878906 L 30.316406 19.878906 L 30.316406 29.609375 L 20.734375 29.609375 Z M 20.734375 19.878906 " fill-opacity="1" fill-rule="nonzero"/></g></g><g clip-path="url(#81578f69e6)"><g clip-path="url(#3087dbdab8)"><path fill="#ffffff" d="M 21.035156 21.375 L 30.15625 21.375 L 30.15625 30.359375 L 21.035156 30.359375 Z M 21.035156 21.375 " fill-opacity="1" fill-rule="nonzero"/></g></g><g clip-path="url(#2b7560dcc1)"><g clip-path="url(#2ca4d9a40e)"><path fill="#ffffff" d="M 22.230469 20.175781 L 31.425781 20.175781 L 31.425781 29.160156 L 22.230469 29.160156 Z M 22.230469 20.175781 " fill-opacity="1" fill-rule="nonzero"/></g></g><g clip-path="url(#543bfda878)"><g clip-path="url(#3dbabe375b)"><path fill="#ffffff" d="M 19.835938 20.925781 L 31.441406 20.925781 L 31.441406 33.796875 L 19.835938 33.796875 Z M 19.835938 20.925781 " fill-opacity="1" fill-rule="nonzero"/></g></g><g clip-path="url(#10d8c3109c)"><g clip-path="url(#cf5b6d36c7)"><path fill="#ffffff" d="M 18.636719 23.695312 L 28.214844 23.695312 L 28.214844 33.054688 L 18.636719 33.054688 Z M 18.636719 23.695312 " fill-opacity="1" fill-rule="nonzero"/></g></g><g clip-path="url(#e04bbad93a)"><g clip-path="url(#fad5193837)"><path fill="#ffffff" d="M 19.085938 23.621094 L 28.59375 23.621094 L 28.59375 33.203125 L 19.085938 33.203125 Z M 19.085938 23.621094 " fill-opacity="1" fill-rule="nonzero"/></g></g><g clip-path="url(#b3ebd6a0d7)"><g clip-path="url(#0da591e265)"><path fill="#ffffff" d="M 35.40625 21.898438 L 181.351562 21.898438 L 181.351562 63 L 35.40625 63 Z M 35.40625 21.898438 " fill-opacity="1" fill-rule="nonzero"/></g></g><g clip-path="url(#1ee6e8f200)"><g clip-path="url(#40c7919579)"><path fill="#ffffff" d="M 96.273438 48.402344 L 193.03125 48.402344 L 193.03125 72.734375 L 96.273438 72.734375 Z M 96.273438 48.402344 " fill-opacity="1" fill-rule="nonzero"/></g></g><g clip-path="url(#f2af30dd15)"><g clip-path="url(#b8a76f9cde)"><path fill="#ffffff" d="M 178.851562 39.792969 L 192.15625 39.792969 L 192.15625 52.59375 L 178.851562 52.59375 Z M 178.851562 39.792969 " fill-opacity="1" fill-rule="nonzero"/></g></g><g clip-path="url(#77a51ce774)"><g clip-path="url(#4594a57397)"><path fill="#ffffff" d="M 115.066406 53.941406 L 141.21875 53.941406 L 141.21875 72.132812 L 115.066406 72.132812 Z M 115.066406 53.941406 " fill-opacity="1" fill-rule="nonzero"/></g></g><g clip-path="url(#8cba5f2d1b)"><g clip-path="url(#dae85c5f9c)"><path fill="#ffffff" d="M 42.820312 60.753906 L 215.113281 60.753906 L 215.113281 116.304688 L 42.820312 116.304688 Z M 42.820312 60.753906 " fill-opacity="1" fill-rule="nonzero"/></g></g><g clip-path="url(#c2b9abd7d8)"><g clip-path="url(#25c1b165f0)"><path fill="#ffffff" d="M 217.859375 16.058594 L 226.242188 16.058594 L 226.242188 24.507812 L 217.859375 24.507812 Z M 217.859375 16.058594 " fill-opacity="1" fill-rule="nonzero"/></g></g><g clip-path="url(#5e7f4be1b0)"><g clip-path="url(#6a963118c9)"><path fill="#ffffff" d="M 206.328125 16.132812 L 266.71875 16.132812 L 266.71875 65.84375 L 206.328125 65.84375 Z M 206.328125 16.132812 " fill-opacity="1" fill-rule="nonzero"/></g></g><g clip-path="url(#b7af38eae5)"><g clip-path="url(#8d38126d5a)"><path fill="#ffffff" d="M 258.0625 37.84375 L 286.609375 37.84375 L 286.609375 65.84375 L 258.0625 65.84375 Z M 258.0625 37.84375 " fill-opacity="1" fill-rule="nonzero"/></g></g><g clip-path="url(#482c750257)"><g clip-path="url(#61863bd3c1)"><path fill="#ffffff" d="M 297.515625 12.691406 L 338.09375 12.691406 L 338.09375 58.972656 L 297.515625 58.972656 Z M 297.515625 12.691406 " fill-opacity="1" fill-rule="nonzero"/></g></g><g clip-path="url(#57637ffee9)"><g clip-path="url(#9fbec5b42f)"><path fill="#ffffff" d="M 311.664062 22.570312 L 370.136719 22.570312 L 370.136719 187.707031 L 311.664062 187.707031 Z M 311.664062 22.570312 " fill-opacity="1" fill-rule="nonzero"/></g></g><g clip-path="url(#ce268abca4)"><g clip-path="url(#acfa26c22a)"><path fill="#ffffff" d="M 194.199219 100.507812 L 235.058594 100.507812 L 235.058594 111.214844 L 194.199219 111.214844 Z M 194.199219 100.507812 " fill-opacity="1" fill-rule="nonzero"/></g></g><g clip-path="url(#91a49cf51f)"><g clip-path="url(#a16c480fe8)"><path fill="#ffffff" d="M 195.324219 95.566406 L 481.277344 95.566406 L 481.277344 193.042969 L 195.324219 193.042969 Z M 195.324219 95.566406 " fill-opacity="1" fill-rule="nonzero"/></g></g><g clip-path="url(#26d68cd29e)"><g clip-path="url(#9c51a9b7b9)"><path fill="#ffffff" d="M 174.285156 180.691406 L 433.808594 180.691406 L 433.808594 267.3125 L 174.285156 267.3125 Z M 174.285156 180.691406 " fill-opacity="1" fill-rule="nonzero"/></g></g></svg>